<svg id="Capa_1" enable-background="new 0 0 512 512" height="512" viewBox="0 0 512 512" width="512" xmlns="http://www.w3.org/2000/svg"><g><path d="m357 296.641h-14.019l7.01-12.141c4.143-7.174 1.685-16.348-5.49-20.49-7.174-4.144-16.349-1.685-20.49 5.49l-7.011 12.141-7.01-12.141c-4.143-7.175-13.315-9.631-20.49-5.49-7.175 4.142-9.633 13.316-5.49 20.49l7.01 12.141h-14.02c-8.284 0-15 6.716-15 15s6.716 15 15 15h14.019l-7.01 12.141c-4.143 7.174-1.685 16.348 5.49 20.49 2.362 1.364 4.941 2.012 7.486 2.012 5.184 0 10.226-2.69 13.004-7.502l7.01-12.141 7.01 12.141c2.778 4.812 7.82 7.502 13.004 7.502 2.545 0 5.124-.648 7.486-2.012 7.175-4.142 9.633-13.316 5.49-20.49l-7.01-12.141h14.021c8.284 0 15-6.716 15-15s-6.716-15-15-15z" fill="#c6def0"/><path d="m196 447.356h-14.019l7.01-12.141c4.142-7.174 1.684-16.348-5.49-20.49-7.175-4.145-16.349-1.685-20.49 5.49l-7.011 12.142-7.01-12.141c-4.142-7.174-13.315-9.633-20.49-5.49-7.174 4.142-9.632 13.316-5.49 20.49l7.01 12.141h-14.02c-8.284 0-15 6.716-15 15s6.716 15 15 15h14.019l-7.01 12.141c-4.142 7.174-1.684 16.348 5.49 20.49 2.362 1.364 4.941 2.012 7.486 2.012 5.184 0 10.227-2.69 13.004-7.502l7.01-12.141 7.01 12.141c2.778 4.812 7.82 7.502 13.004 7.502 2.544 0 5.124-.648 7.486-2.012 7.174-4.142 9.632-13.316 5.49-20.49l-7.01-12.141h14.021c8.284 0 15-6.716 15-15s-6.716-15.001-15-15.001z" fill="#e4eff8"/><path d="m496 355h-14.019l7.01-12.141c4.143-7.174 1.685-16.348-5.49-20.49-7.175-4.144-16.349-1.685-20.49 5.49l-7.011 12.141-7.01-12.141c-4.142-7.175-13.316-9.632-20.49-5.49-7.175 4.142-9.633 13.316-5.49 20.49l7.01 12.141h-14.02c-8.284 0-15 6.716-15 15s6.716 15 15 15h14.019l-7.01 12.141c-4.143 7.174-1.685 16.348 5.49 20.49 2.362 1.364 4.941 2.012 7.486 2.012 5.184 0 10.226-2.69 13.004-7.502l7.011-12.141 7.01 12.141c2.778 4.812 7.82 7.502 13.004 7.502 2.545 0 5.124-.648 7.486-2.012 7.175-4.142 9.633-13.316 5.49-20.49l-7.009-12.141h14.019c8.284 0 15-6.716 15-15s-6.716-15-15-15z" fill="#c6def0"/><path d="m96 317.641h-14.019l7.01-12.141c4.142-7.174 1.684-16.348-5.49-20.49-7.176-4.144-16.35-1.684-20.49 5.49l-7.011 12.141-7.01-12.141c-4.142-7.175-13.316-9.632-20.49-5.49s-9.632 13.316-5.49 20.49l7.01 12.141h-14.02c-8.284 0-15 6.716-15 15s6.716 15 15 15h14.019l-7.01 12.141c-4.142 7.174-1.684 16.348 5.49 20.49 2.362 1.364 4.941 2.012 7.486 2.012 5.184 0 10.227-2.69 13.004-7.502l7.011-12.141 7.01 12.141c2.778 4.812 7.82 7.502 13.004 7.502 2.544 0 5.124-.648 7.486-2.012 7.174-4.142 9.632-13.316 5.49-20.49l-7.01-12.141h14.02c8.284 0 15-6.716 15-15s-6.716-15-15-15z" fill="#e4eff8"/><circle cx="436" cy="497" fill="#c6def0" r="15"/><circle cx="312" cy="454" fill="#c6def0" r="15"/><circle cx="156" cy="292" fill="#e4eff8" r="15"/><g><path d="m447 230h-191c-8.284 0-15-6.716-15-15v-141.358c0-5.248 2.743-10.114 7.231-12.832 11.682-7.072 25.087-10.81 38.769-10.81 6.326 0 12.547.789 18.598 2.354 17.933-20.44 43.87-32.354 71.402-32.354 49.071 0 89.571 37.397 94.497 85.188 24.044 9.781 40.503 33.314 40.503 59.812 0 35.841-29.159 65-65 65z" fill="#a0c8e6"/><path d="m305 230h-240c-35.841 0-65-29.159-65-65 0-27.593 17.483-51.424 42.239-60.679-1.489-6.306-2.239-12.762-2.239-19.321 0-46.869 38.131-85 85-85 20.296 0 39.937 7.28 55.305 20.5 10.353 8.905 18.354 20.127 23.412 32.614 6.888-2.056 14.055-3.114 21.283-3.114 18.806 0 36.792 6.995 50.645 19.695 9.334 8.557 16.259 19.203 20.286 30.951 2.997-.43 6.022-.646 9.069-.646 35.841 0 65 29.159 65 65s-29.159 65-65 65z" fill="#e4eff8"/><path d="m305 100c-3.047 0-6.072.216-9.069.646-4.027-11.748-10.952-22.394-20.286-30.951-5.885-5.396-12.521-9.749-19.645-12.987v173.292h49c35.841 0 65-29.159 65-65s-29.159-65-65-65z" fill="#c6def0"/></g></g></svg>